<svg width="64" height="56" viewBox="0 0 64 56" fill="none" xmlns="http://www.w3.org/2000/svg" xmlns:xlink="http://www.w3.org/1999/xlink">
<path d="M0,20C0,18.939 0.421,17.922 1.172,17.172C1.922,16.421 2.939,16 4,16L45.232,16C46.293,16 47.31,16.421 48.06,17.172C48.811,17.922 49.232,18.939 49.232,20C49.232,21.061 48.811,22.078 48.06,22.828C47.31,23.579 46.293,24 45.232,24L4,24C2.939,24 1.922,23.579 1.172,22.828C0.421,22.078 0,21.061 0,20ZM0,4C0,2.939 0.421,1.922 1.172,1.172C1.922,0.421 2.939,0 4,0L60,0C61.061,0 62.078,0.421 62.828,1.172C63.579,1.922 64,2.939 64,4C64,5.061 63.579,6.078 62.828,6.828C62.078,7.579 61.061,8 60,8L4,8C2.939,8 1.922,7.579 1.172,6.828C0.421,6.078 0,5.061 0,4ZM0,36C0,34.939 0.421,33.922 1.172,33.172C1.922,32.421 2.939,32 4,32L60,32C61.061,32 62.078,32.421 62.828,33.172C63.579,33.922 64,34.939 64,36C64,37.061 63.579,38.078 62.828,38.828C62.078,39.579 61.061,40 60,40L4,40C2.939,40 1.922,39.579 1.172,38.828C0.421,38.078 0,37.061 0,36ZM0,52C0,50.939 0.421,49.922 1.172,49.172C1.922,48.421 2.939,48 4,48L45.232,48C46.293,48 47.31,48.421 48.06,49.172C48.811,49.922 49.232,50.939 49.232,52C49.232,53.061 48.811,54.078 48.06,54.828C47.31,55.579 46.293,56 45.232,56L4,56C2.939,56 1.922,55.579 1.172,54.828C0.421,54.078 0,53.061 0,52Z" clip-rule="evenodd" fill-rule="evenodd" fill="#FFFFFF"/>
</svg>
