<svg width="42" height="42" viewBox="0 0 42 42" fill="none" xmlns="http://www.w3.org/2000/svg" xmlns:xlink="http://www.w3.org/1999/xlink">
<path d="M42,21.053C42,9.432 32.592,0 21,0C9.408,0 0,9.432 0,21.053C0,31.242 7.224,39.726 16.8,41.684L16.8,27.368L12.6,27.368L12.6,21.053L16.8,21.053L16.8,15.789C16.8,11.726 20.097,8.421 24.15,8.421L29.4,8.421L29.4,14.737L25.2,14.737C24.045,14.737 23.1,15.684 23.1,16.842L23.1,21.053L29.4,21.053L29.4,27.368L23.1,27.368L23.1,42C33.705,40.947 42,31.979 42,21.053Z" fill="#DAC0A3"/>
</svg>
