<svg width="42" height="42" viewBox="0 0 42 42" fill="none" xmlns="http://www.w3.org/2000/svg" xmlns:xlink="http://www.w3.org/1999/xlink">
<path d="M21,0C9.402,0 0,9.402 0,21C0,32.598 9.402,42 21,42C32.598,42 42,32.598 42,21C42,9.402 32.598,0 21,0ZM15.859,29.704L11.607,29.704L11.607,16.019L15.859,16.019L15.859,29.704ZM13.707,14.339C12.364,14.339 11.495,13.387 11.495,12.211C11.495,11.01 12.39,10.087 13.762,10.087C15.133,10.087 15.973,11.01 15.999,12.211C15.999,13.387 15.133,14.339 13.707,14.339ZM31.391,29.704L27.138,29.704L27.138,22.12C27.138,20.355 26.521,19.156 24.983,19.156C23.809,19.156 23.111,19.968 22.803,20.748C22.689,21.026 22.66,21.42 22.66,21.812L22.66,29.702L18.406,29.702L18.406,20.383C18.406,18.675 18.351,17.246 18.294,16.017L21.989,16.017L22.183,17.918L22.269,17.918C22.829,17.025 24.2,15.708 26.495,15.708C29.293,15.708 31.391,17.583 31.391,21.613L31.391,29.704Z" fill="#DAC0A3"/>
</svg>
