<svg width="42" height="42" viewBox="0 0 42 42" fill="none" xmlns="http://www.w3.org/2000/svg" xmlns:xlink="http://www.w3.org/1999/xlink">
<path d="M21,0C9.403,0 0,9.403 0,21C0,32.597 9.403,42 21,42C32.597,42 42,32.597 42,21C42,9.403 32.597,0 21,0ZM28.828,29.7C26.925,31.453 24.328,32.484 21.23,32.484C16.744,32.484 12.862,29.911 10.973,26.161C10.195,24.609 9.75,22.856 9.75,21C9.75,19.144 10.195,17.391 10.973,15.839C12.862,12.084 16.744,9.511 21.23,9.511C24.323,9.511 26.92,10.65 28.913,12.502L25.622,15.797C24.431,14.658 22.917,14.081 21.234,14.081C18.244,14.081 15.712,16.102 14.808,18.816C14.578,19.505 14.447,20.241 14.447,21C14.447,21.759 14.578,22.495 14.808,23.184C15.712,25.898 18.244,27.919 21.23,27.919C22.777,27.919 24.089,27.511 25.116,26.822C26.334,26.006 27.141,24.792 27.408,23.353L21.23,23.353L21.23,18.909L32.044,18.909C32.18,19.664 32.25,20.447 32.25,21.258C32.25,24.759 30.998,27.698 28.828,29.7Z" fill="#DAC0A3"/>
</svg>
